<?xml version="1.0" standalone="no"?><!DOCTYPE svg PUBLIC "-//W3C//DTD SVG 1.1//EN" "http://www.w3.org/Graphics/SVG/1.1/DTD/svg11.dtd"><svg t="1596937063860" class="icon" viewBox="0 0 1024 1024" version="1.1" xmlns="http://www.w3.org/2000/svg" p-id="1693" xmlns:xlink="http://www.w3.org/1999/xlink" width="200" height="200"><defs><style type="text/css"></style></defs><path d="M546.162566 71.323419 546.162566 2.858094c255.239172 17.084097 457.694163 219.939201 474.910267 474.977805L952.742585 477.835899C935.92557 260.431427 763.567038 88.140433 546.162566 71.323419L546.162566 71.323419zM546.162566 272.843108 546.162566 477.835899l204.992791 0 0 68.330248L546.162566 546.166147l0 204.988698-68.329225 0 0-204.988698L272.839527 546.166147 272.839527 477.835899l204.992791 0L477.832318 272.843108 546.162566 272.843108 546.162566 272.843108zM71.252299 477.835899 2.922051 477.835899C20.139178 222.796272 222.593146 19.942191 477.832318 2.858094l0 68.465325C260.427846 88.140433 88.06829 260.431427 71.252299 477.835899L71.252299 477.835899zM477.832318 952.678628l0 68.465325c-255.239172-17.084097-457.694163-219.939201-474.910267-474.977805l68.329225 0C88.06829 763.434519 260.427846 935.861614 477.832318 952.678628L477.832318 952.678628zM952.742585 546.166147l68.329225 0c-17.216103 255.038604-219.671095 457.893708-474.910267 474.977805l0-68.465325C763.567038 935.861614 935.92557 763.434519 952.742585 546.166147L952.742585 546.166147z" p-id="1694"></path></svg>