<?xml version="1.0" standalone="no"?><!DOCTYPE svg PUBLIC "-//W3C//DTD SVG 1.1//EN" "http://www.w3.org/Graphics/SVG/1.1/DTD/svg11.dtd"><svg t="1596937483751" class="icon" viewBox="0 0 1024 1024" version="1.1" xmlns="http://www.w3.org/2000/svg" p-id="3162" xmlns:xlink="http://www.w3.org/1999/xlink" width="200" height="200"><defs><style type="text/css"></style></defs><path d="M908.979872 0 113.328603 0c-62.612013 0-113.307625 50.729381-113.307625 113.307625l0 795.650245c0 62.612013 50.729381 113.303532 113.307625 113.303532l795.650245 0c62.608943 0 113.303532-50.726312 113.303532-113.303532L1022.282381 113.307625C1022.283404 50.694589 971.554022 0 908.979872 0zM795.114544 567.92266 567.944662 567.92266l0 227.16886L454.35972 795.09152 454.35972 567.92266 227.190861 567.92266 227.190861 454.338742l227.16886 0L454.35972 227.16886l113.584941 0 0 227.16886 227.16886 0L795.113521 567.92266z" p-id="3163"></path></svg>